<svg xmlns="http://www.w3.org/2000/svg" xmlns:xlink="http://www.w3.org/1999/xlink" viewBox="0 0 257.68 150"><defs><style>.cls-1,.cls-4,.cls-6{fill:none;}.cls-2{clip-path:url(#clip-path);}.cls-3{fill:#6abe5d;}.cls-4,.cls-6{stroke:#231f20;stroke-miterlimit:10;}.cls-4{stroke-width:1.7px;}.cls-5{fill:#231f20;}.cls-6{stroke-width:0.85px;}</style><clipPath id="clip-path" transform="translate(0 0)"><rect class="cls-1" width="282.51" height="150"/></clipPath></defs><title>Project Logo</title><g id="Layer_2" data-name="Layer 2"><g id="Layer_1-2" data-name="Layer 1"><g id="Project_Logo" data-name="Project Logo"><g class="cls-2"><rect class="cls-3" x="21.51" y="37.14" width="56.47" height="104.61" transform="translate(-34.68 31.59) rotate(-26.49)"/><g class="cls-2"><rect class="cls-4" x="21.51" y="37.14" width="56.47" height="104.61" transform="translate(-34.68 31.59) rotate(-26.49)"/></g><rect class="cls-3" x="34.39" y="18.24" width="56.47" height="104.13" transform="translate(-11.46 12.2) rotate(-10.2)"/><rect class="cls-4" x="34.39" y="18.24" width="56.47" height="104.13" transform="translate(-11.46 12.2) rotate(-10.2)"/><rect class="cls-3" x="24.36" y="33.38" width="102.91" height="56.01" transform="translate(2.9 126.19) rotate(-80.63)"/><rect class="cls-4" x="24.36" y="33.38" width="102.91" height="56.01" transform="translate(2.9 126.19) rotate(-80.63)"/><rect class="cls-3" x="44.41" y="32.39" width="103.36" height="52.44" transform="translate(-6.73 104.39) rotate(-55.39)"/><g class="cls-2"><rect class="cls-4" x="44.41" y="32.39" width="103.36" height="52.44" transform="translate(-6.73 104.39) rotate(-55.39)"/></g><rect class="cls-3" x="68" y="31.47" width="106.83" height="68.83" transform="translate(-15.91 80.88) rotate(-34.72)"/><rect class="cls-4" x="68" y="31.47" width="106.83" height="68.83" transform="translate(-15.91 80.88) rotate(-34.72)"/><path class="cls-5" d="M149.7,120.81c0,5.45-2.42,8.32-7.36,8.32-4.44,0-6.28-2.49-6.68-5.08h1.73c.62,2.35,2.56,3.47,5,3.47,4.44,0,5.66-2.86,5.66-7.19v-1.77c-.92,2.22-2.59,3.41-5.69,3.41-4,0-7.06-3.24-7.06-8.52,0-5.73,3.28-8.93,7.3-8.93,3.48,0,5,1.63,5.45,3,0-1,.07-2.19.11-2.59h1.6c0,.61-.07,3.3-.07,4.94Zm-12.58-7.43c0,4.06,2.15,7,5.42,7,4.26,0,5.56-2.83,5.56-7.26s-1.37-7-5.46-7C138.72,106.12,137.12,109.49,137.12,113.38Zm18.17-4.06c0-1.46,0-3.07,0-4.39h1.67c0,.57.1,2,.07,3a5.32,5.32,0,0,1,5.11-3.44,4.85,4.85,0,0,1,5,3.37,5.79,5.79,0,0,1,5.55-3.37c2.63,0,5.35,1.5,5.35,6.23V122h-1.7V111c0-2.29-.82-4.77-4-4.77s-4.81,2.66-4.81,6V122h-1.67V111c0-2.49-.75-4.8-3.88-4.8-3.31,0-4.91,2.93-4.91,6.4V122h-1.7Zm28.62,4.33c0,4.4,2.25,7.13,5.53,7.13a4.79,4.79,0,0,0,4.9-3.21h1.74a6.53,6.53,0,0,1-6.71,4.81c-5.18,0-7.2-4.47-7.2-8.8,0-4.87,2.42-9.06,7.4-9.06,5.25,0,6.92,4.53,6.92,7.73,0,.48,0,1,0,1.4Zm10.81-1.5h0c0-3.37-1.88-6-5.22-6-3.51,0-5.11,2.45-5.48,6Zm14.38.27v1.67h-8.59v-1.67Zm4.5-3.2c0-1.5,0-2.93,0-4.29h1.67c.07.54.1,2.76.07,3.23a5.56,5.56,0,0,1,5.66-3.64c3,0,5.73,1.7,5.73,6.4v11H225V111.2c0-3-1.26-5-4.23-5-4.05,0-5.45,3.37-5.45,7.09V122h-1.7Zm31.69,11.59c0,5.45-2.42,8.32-7.36,8.32-4.43,0-6.27-2.49-6.68-5.08H233c.61,2.35,2.55,3.47,5,3.47,4.43,0,5.66-2.86,5.66-7.19v-1.77c-.92,2.22-2.59,3.41-5.69,3.41-4,0-7.06-3.24-7.06-8.52,0-5.73,3.27-8.93,7.29-8.93,3.48,0,5,1.63,5.46,3,0-1,.07-2.19.1-2.59h1.6c0,.61-.07,3.3-.07,4.94Zm-12.57-7.43c0,4.06,2.14,7,5.42,7,4.26,0,5.55-2.83,5.55-7.26s-1.36-7-5.45-7C234.32,106.12,232.72,109.49,232.72,113.38Zm15.6-8.45h3.17V99.61h1.71v5.32h4.05v1.6H253.2v11.08c0,1.9.41,3,2,3a6.55,6.55,0,0,0,1.78-.21v1.5a6,6,0,0,1-2.12.31c-2.18,0-3.41-1.09-3.41-3.82V106.53h-3.17Z" transform="translate(0 0)"/><g class="cls-2"><path class="cls-6" d="M142.64,106.12c4.09,0,5.45,2.49,5.45,7s-1.29,7.26-5.55,7.26c-3.27,0-5.42-2.93-5.42-7C137.12,109.5,138.72,106.12,142.64,106.12Zm7.06,3.75c0-1.64.06-4.33.06-4.94h-1.6c0,.41-.07,1.6-.1,2.59-.48-1.36-2-3-5.45-3-4,0-7.3,3.2-7.3,8.93,0,5.28,3.07,8.52,7.06,8.52,3.1,0,4.77-1.19,5.69-3.41v1.77c0,4.33-1.23,7.19-5.66,7.19-2.45,0-4.39-1.12-5-3.47h-1.73c.4,2.59,2.24,5.08,6.68,5.08,4.94,0,7.36-2.87,7.36-8.32Z" transform="translate(0 0)"/><path class="cls-6" d="M155.28,122H157V112.6c0-3.48,1.6-6.41,4.91-6.41,3.13,0,3.88,2.32,3.88,4.8v11h1.67v-9.82c0-3.3,1.5-6,4.81-6s4,2.49,4,4.77v11H178V110.76c0-4.74-2.73-6.24-5.35-6.24a5.8,5.8,0,0,0-5.56,3.37,4.83,4.83,0,0,0-4.94-3.37A5.32,5.32,0,0,0,157,108c0-1,0-2.45-.07-3h-1.67c0,1.33,0,2.93,0,4.4Z" transform="translate(0 0)"/><path class="cls-6" d="M184,112.15h0c.38-3.57,2-6,5.49-6,3.34,0,5.18,2.66,5.22,6Zm12.44,1.5c0-.44,0-.92,0-1.39,0-3.21-1.67-7.74-6.92-7.74-5,0-7.4,4.19-7.4,9.07,0,4.32,2,8.79,7.19,8.79a6.54,6.54,0,0,0,6.72-4.81h-1.74a4.79,4.79,0,0,1-4.91,3.21c-3.27,0-5.48-2.73-5.52-7.13Z" transform="translate(0 0)"/><rect class="cls-6" x="200.51" y="112.43" width="8.59" height="1.67"/><path class="cls-6" d="M213.59,122h1.71v-8.69c0-3.72,1.4-7.09,5.45-7.09,3,0,4.23,2,4.23,5V122h1.7v-11c0-4.71-2.69-6.41-5.72-6.41a5.57,5.57,0,0,0-5.66,3.65c0-.48,0-2.7-.07-3.24h-1.67c0,1.36,0,2.79,0,4.29Z" transform="translate(0 0)"/><path class="cls-6" d="M238.23,106.12c4.1,0,5.46,2.49,5.46,7s-1.3,7.26-5.56,7.26c-3.27,0-5.42-2.93-5.42-7C232.71,109.5,234.32,106.12,238.23,106.12Zm7.06,3.75c0-1.64.07-4.33.07-4.94h-1.6c0,.41-.07,1.6-.11,2.59-.47-1.36-2-3-5.45-3-4,0-7.29,3.2-7.29,8.93,0,5.28,3.06,8.52,7.05,8.52,3.1,0,4.77-1.19,5.69-3.41v1.77c0,4.33-1.22,7.19-5.65,7.19-2.46,0-4.4-1.12-5-3.47h-1.74c.41,2.59,2.25,5.08,6.68,5.08,4.94,0,7.36-2.87,7.36-8.32Z" transform="translate(0 0)"/><path class="cls-6" d="M248.32,106.53h3.17v11.86c0,2.73,1.23,3.82,3.41,3.82a5.89,5.89,0,0,0,2.11-.31v-1.5a6.44,6.44,0,0,1-1.77.21c-1.63,0-2-1.1-2-3V106.53h4.05v-1.6H253.2V99.61h-1.71v5.32h-3.17Z" transform="translate(0 0)"/></g></g></g></g></g></svg>